<?xml version="1.0" encoding="UTF-8"?>
<svg width="121px" height="121px" viewBox="0 0 121 121" version="1.1"
     xmlns="http://www.w3.org/2000/svg">
    <title>ic_add</title>
    <g id="App" stroke="none" stroke-width="1" fill="none" fill-rule="evenodd">
        <g id="App-—-HomePage__Overview_Empty" transform="translate(-776.000000, -374.000000)">
            <g id="DefaultCallToAction" transform="translate(10.000000, 70.000000)">
                <g id="Group-2" transform="translate(251.000000, 17.000000)">
                    <g id="DefaultCallToAction-Copy" transform="translate(226.000000, 141.000000)">
                        <g id="Icon-24px" transform="translate(247.000000, 104.000000)">
                            <path d="M120.042065,111.041667 C115.071282,111.041667 111.041667,115.063168 111.041667,120.042065 L111.041667,153.291269 C111.041667,158.262051 107.014788,162.291667 102.049746,162.291667 L102.950254,162.291667 C97.9841533,162.291667 93.9583333,158.270165 93.9583333,153.291269 L93.9583333,120.042065 C93.9583333,115.071282 89.9368318,111.041667 84.9579353,111.041667 L51.7087313,111.041667 C46.7379488,111.041667 42.7083333,107.014788 42.7083333,102.049746 L42.7083333,102.950254 C42.7083333,97.9841533 46.7298349,93.9583333 51.7087313,93.9583333 L84.9579353,93.9583333 C89.9287179,93.9583333 93.9583333,89.9368318 93.9583333,84.9579353 L93.9583333,51.7087313 C93.9583333,46.7379488 97.9852124,42.7083333 102.950254,42.7083333 L102.049746,42.7083333 C107.015847,42.7083333 111.041667,46.7298349 111.041667,51.7087313 L111.041667,84.9579353 C111.041667,89.9287179 115.063168,93.9583333 120.042065,93.9583333 L153.291269,93.9583333 C158.262051,93.9583333 162.291667,97.9852124 162.291667,102.950254 L162.291667,102.049746 C162.291667,107.015847 158.270165,111.041667 153.291269,111.041667 L120.042065,111.041667 Z"
                                  id="Shape" fill="#000000"></path>
                            <polygon id="Shape" points="0 0 205 0 205 205 0 205"></polygon>
                        </g>
                    </g>
                </g>
            </g>
        </g>
    </g>
</svg>