<svg width="113" height="112" viewBox="0 0 113 112" fill="none" xmlns="http://www.w3.org/2000/svg">
    <path d="M50.85 72.8H62.15V84H50.85V72.8ZM50.85 28H62.15V61.6H50.85V28ZM56.5 0C25.2555 0 0 25.2 0 56C0 70.8521 5.95266 85.0959 16.5485 95.598C21.795 100.798 28.0235 104.923 34.8784 107.737C41.7333 110.552 49.0803 112 56.5 112C71.4847 112 85.8557 106.1 96.4515 95.598C107.047 85.0959 113 70.8521 113 56C113 48.646 111.539 41.364 108.699 34.5697C105.86 27.7755 101.698 21.6021 96.4515 16.402C91.205 11.2019 84.9765 7.07701 78.1216 4.26275C71.2667 1.44848 63.9197 0 56.5 0ZM56.5 100.8C44.5122 100.8 33.0154 96.08 24.5388 87.6784C16.0621 79.2768 11.3 67.8817 11.3 56C11.3 44.1183 16.0621 32.7232 24.5388 24.3216C33.0154 15.92 44.5122 11.2 56.5 11.2C68.4878 11.2 79.9846 15.92 88.4612 24.3216C96.9379 32.7232 101.7 44.1183 101.7 56C101.7 67.8817 96.9379 79.2768 88.4612 87.6784C79.9846 96.08 68.4878 100.8 56.5 100.8Z"
          fill="#DD8888"/>
</svg>
